<?xml version="1.0" encoding="utf-8"?>
<!-- Generator: Adobe Illustrator 24.2.3, SVG Export Plug-In . SVG Version: 6.00 Build 0)  -->
<svg version="1.1" id="Layer_1" xmlns="http://www.w3.org/2000/svg" xmlns:xlink="http://www.w3.org/1999/xlink" x="0px" y="0px"
	 viewBox="0 0 500 618.06" style="enable-background:new 0 0 500 618.06;" xml:space="preserve">
<style type="text/css">
	.st0{fill:#1A1A1A;}
	.st1{fill:#0619FF;}
</style>
<g>
	<path class="st0" d="M254,375c-70.14,0-127-55.96-127-125c0-69.04,56.86-125,127-125c46.98,0,87.9,25.17,109.87,62.5H500
		C471.8,79.67,372.36,0,254,0C113.72,0,0,111.93,0,250v250h256.94l-0.06-0.06C373.96,498.65,472.03,419.45,500,312.5H363.87
		C341.9,349.83,300.98,375,254,375z"/>
	<path class="st1" d="M479.11,618.06H20.89C9.35,618.06,0,608.7,0,597.16v-20.72c0-11.54,9.35-20.89,20.89-20.89h458.22
		c11.54,0,20.89,9.35,20.89,20.89v20.72C500,608.7,490.65,618.06,479.11,618.06z"/>
</g>
</svg>
